<?xml version="1.0" encoding="utf-8"?>
<!-- Generator: Adobe Illustrator 22.1.0, SVG Export Plug-In . SVG Version: 6.00 Build 0)  -->
<svg version="1.1" id="Capa_1" xmlns="http://www.w3.org/2000/svg" xmlns:xlink="http://www.w3.org/1999/xlink" x="0px" y="0px"
	 viewBox="0 0 12 12" style="enable-background:new 0 0 12 12;" xml:space="preserve">
<style type="text/css">
	.st0{fill:#114575;}
	.st1{fill:#3ACBF7;}
</style>
<path class="st0" d="M5.7,0.6c0.2,0,0.3,0,0.5,0c0.1,0,0.2,0,0.2,0c0.1,0,0.2,0,0.3,0c0.1,0,0.1,0,0.2,0c0.2,0,0.3,0.1,0.5,0.1
	C7.7,0.9,8,1,8.3,1.1c0.6,0.3,1.1,0.6,1.6,1.1c0.4,0.4,0.8,0.9,1.1,1.5c0,0.1,0.1,0.1,0.1,0.2C11,4,11.1,4.1,11.1,4.3
	c0.1,0.3,0.2,0.5,0.2,0.8c0,0.1,0,0.1,0,0.2c0,0.1,0,0.2,0,0.3c0,0.2,0,0.4,0,0.5c0,0.1,0,0.2,0,0.3c0,0.1,0,0.1,0,0.2
	c0,0.1,0,0.1,0,0.2c0,0.1,0,0.2-0.1,0.3c-0.1,0.4-0.2,0.8-0.4,1.2c-0.3,0.7-0.8,1.4-1.5,1.9C9,10.5,8.6,10.8,8.2,11
	C8,11,7.9,11.1,7.8,11.1c-0.1,0-0.2,0.1-0.2,0.1c-0.1,0-0.3,0.1-0.4,0.1c-0.1,0-0.2,0-0.3,0.1c-0.1,0-0.2,0-0.3,0
	c-0.1,0-0.3,0-0.4,0c-0.1,0-0.3,0-0.4,0c-0.1,0-0.1,0-0.2,0c-0.1,0-0.1,0-0.2,0c-0.1,0-0.2,0-0.3,0c-0.1,0-0.2,0-0.3-0.1
	c-0.2,0-0.4-0.1-0.6-0.2c-0.2-0.1-0.5-0.2-0.7-0.3c0,0-0.1,0-0.1-0.1c-0.2-0.1-0.5-0.3-0.7-0.5C1.8,9.6,1.2,8.7,0.9,7.8
	C0.8,7.6,0.8,7.4,0.7,7.2c0-0.1-0.1-0.3-0.1-0.4c0-0.1,0-0.1,0-0.2c0-0.1,0-0.2,0-0.3c0-0.2,0-0.4,0-0.6c0-0.1,0-0.2,0-0.2
	c0-0.1,0-0.1,0-0.2c0-0.1,0-0.1,0-0.2c0-0.1,0-0.2,0-0.3C0.8,4.5,0.9,4.2,1,3.9c0-0.1,0.1-0.1,0.1-0.2c0.2-0.4,0.4-0.7,0.6-1
	c0.4-0.6,1-1,1.6-1.4C3.5,1.2,3.7,1.1,3.9,1c0.3-0.1,0.7-0.3,1.1-0.3c0.1,0,0.2,0,0.2,0c0.1,0,0.1,0,0.2,0c0.1,0,0.2,0,0.2,0
	C5.6,0.6,5.7,0.6,5.7,0.6"/>
<path class="st1" d="M5.8,1.5c0.1,0,0.3,0,0.4,0c0.1,0,0.1,0,0.2,0c0.1,0,0.2,0,0.3,0c0.1,0,0.1,0,0.2,0c0.1,0,0.3,0.1,0.4,0.1
	c0.2,0.1,0.4,0.1,0.7,0.2c0.5,0.2,0.9,0.5,1.3,0.9C9.6,3.1,9.9,3.6,10.1,4c0,0,0,0.1,0.1,0.1c0.1,0.1,0.1,0.2,0.1,0.4
	c0.1,0.2,0.1,0.5,0.2,0.7c0,0.1,0,0.1,0,0.2c0,0.1,0,0.1,0,0.2c0,0.2,0,0.3,0,0.5c0,0.1,0,0.2,0,0.3c0,0.1,0,0.1,0,0.2
	c0,0,0,0.1,0,0.2c0,0.1,0,0.2-0.1,0.3c-0.1,0.3-0.2,0.7-0.3,1C9.8,8.6,9.4,9.1,8.9,9.5c-0.3,0.3-0.7,0.5-1,0.6
	c-0.1,0-0.2,0.1-0.3,0.1c-0.1,0-0.1,0-0.2,0.1c-0.1,0-0.2,0.1-0.4,0.1c-0.1,0-0.2,0-0.3,0c-0.1,0-0.2,0-0.3,0c-0.1,0-0.2,0-0.4,0
	c-0.1,0-0.3,0-0.4,0c-0.1,0-0.1,0-0.2,0c0,0-0.1,0-0.2,0c-0.1,0-0.2,0-0.2,0c-0.1,0-0.2,0-0.2-0.1c-0.2,0-0.3-0.1-0.5-0.1
	C4.2,10.2,4,10.1,3.8,10c0,0-0.1,0-0.1-0.1C3.5,9.8,3.3,9.7,3.1,9.5C2.5,9,2,8.3,1.7,7.5C1.6,7.4,1.6,7.2,1.6,7c0-0.1,0-0.2-0.1-0.3
	c0,0,0-0.1,0-0.1c0-0.1,0-0.1,0-0.2c0-0.2,0-0.3,0-0.5c0-0.1,0-0.1,0-0.2c0-0.1,0-0.1,0-0.2c0-0.1,0-0.1,0-0.2c0-0.1,0-0.1,0-0.2
	c0.1-0.3,0.2-0.6,0.3-0.9c0-0.1,0-0.1,0.1-0.2C2,3.7,2.2,3.4,2.4,3.2C2.8,2.7,3.3,2.3,3.8,2c0.1-0.1,0.3-0.1,0.4-0.2
	c0.3-0.1,0.6-0.2,0.9-0.3c0.1,0,0.1,0,0.2,0c0,0,0.1,0,0.1,0c0.1,0,0.1,0,0.2,0C5.7,1.5,5.7,1.5,5.8,1.5 M5.9,1.9
	c-0.2,0-0.3,0-0.5,0C5.3,2,5.2,2,5,2C4.8,2.1,4.5,2.2,4.3,2.3C4.1,2.4,3.9,2.5,3.7,2.6C3.7,2.7,3.6,2.7,3.5,2.8
	C3.4,2.8,3.3,2.9,3.2,3c0,0-0.1,0.1-0.1,0.1C2.6,3.7,2.2,4.3,2,5C2,5.2,2,5.4,2,5.5c0,0.2,0,0.3,0,0.5c0,0.1,0,0.3,0,0.4
	C2,6.5,2,6.7,2,6.8C2,6.9,2.1,7,2.1,7c0.1,0.4,0.3,0.8,0.6,1.2C2.8,8.5,3,8.7,3.2,8.9c0.3,0.3,0.6,0.5,1,0.7
	c0.1,0.1,0.3,0.1,0.4,0.2c0.1,0,0.2,0.1,0.3,0.1C5.1,10,5.3,10,5.5,10c0.1,0,0.1,0,0.2,0c0.3,0,0.5,0,0.8,0c0.1,0,0.2,0,0.2,0
	c0.1,0,0.1,0,0.2,0c0.1,0,0.2,0,0.2-0.1c0.5-0.1,0.9-0.4,1.4-0.7C8.8,9,9,8.8,9.2,8.5c0.1-0.1,0.1-0.2,0.2-0.2
	C9.5,8.2,9.5,8.1,9.6,8c0-0.1,0.1-0.2,0.1-0.2C9.8,7.5,9.9,7.3,10,7c0-0.2,0.1-0.4,0.1-0.6c0-0.2,0-0.5,0-0.7c0-0.1,0-0.1,0-0.2
	c0-0.4-0.1-0.7-0.3-1C9.7,4.2,9.6,3.9,9.4,3.7C9.2,3.4,8.9,3,8.6,2.8C8.1,2.4,7.6,2.2,7,2C6.8,2,6.7,2,6.6,1.9c-0.1,0-0.1,0-0.2,0
	C6.2,1.9,6.1,1.9,5.9,1.9L5.9,1.9z M4,2.8c0.2-0.2,0.5-0.3,0.8-0.4c-0.1,0-0.1,0.1-0.2,0.1C4.4,2.6,4.2,2.8,4.1,3
	C3.9,3.1,3.8,3.3,3.8,3.4C3.7,3.6,3.7,3.7,3.6,3.8c0,0.1,0,0.2,0,0.3c0,0.3,0.1,0.5,0.2,0.7C3.9,5,4.1,5.2,4.2,5.3
	c0.1,0.1,0.2,0.1,0.3,0.2c0,0,0.1,0.1,0.1,0.1c0,0.1,0.1,0.1,0.1,0.2c0,0.1,0,0.1,0,0.2c0,0.1,0,0.2,0,0.2c0,0.1,0,0.1,0,0.2
	c0,0,0,0.1,0,0.1c0,0.1,0,0.2,0,0.3c0,0.1,0,0.1,0,0.2c0,0,0,0.1,0,0.1c0,0,0,0-0.1,0c-0.2,0-0.4,0-0.6-0.1C4,7,3.9,6.9,3.8,6.9
	C3.7,6.8,3.6,6.7,3.5,6.6C3.4,6.5,3.3,6.3,3.2,6.2c0,0,0-0.1-0.1-0.1c0,0,0-0.1-0.1-0.1C3,5.7,3,5.5,2.9,5.3c0-0.1,0-0.2,0-0.2
	c0-0.3,0-0.6,0.1-0.9c0-0.1,0.1-0.3,0.2-0.4c0.1-0.3,0.3-0.5,0.5-0.7C3.7,3,3.9,2.9,4,2.8z M7.2,2.4c0.1,0,0.1,0,0.1,0
	c0.1,0,0.2,0.1,0.3,0.1C8,2.7,8.2,2.9,8.4,3.1c0.2,0.2,0.3,0.4,0.5,0.6c0,0.1,0,0.1,0.1,0.2C9,4.1,9.1,4.4,9.1,4.7
	c0,0.1,0,0.2,0,0.3c0,0.2,0,0.4-0.1,0.6C9,5.8,9,5.9,8.9,6C8.8,6.1,8.8,6.3,8.7,6.4C8.6,6.6,8.4,6.7,8.2,6.9C8,7,7.8,7.1,7.6,7.1
	c-0.1,0-0.1,0-0.2,0c0,0-0.1,0-0.1,0c0,0,0-0.1,0-0.1c0-0.1,0-0.1,0-0.2c0-0.1,0-0.3,0-0.4c0,0,0-0.1,0-0.1c0-0.1,0-0.2,0-0.3
	c0-0.1,0-0.1,0-0.2c0,0,0-0.1,0.1-0.1c0.1-0.1,0.2-0.2,0.3-0.3C7.8,5.3,7.9,5.3,8,5.2C8.1,5,8.2,4.8,8.3,4.6c0-0.1,0.1-0.2,0.1-0.3
	c0-0.1,0-0.2,0-0.2c0-0.1,0-0.3-0.1-0.4c0-0.1-0.1-0.2-0.1-0.3C8.1,3.2,8.1,3.1,8,3C7.8,2.8,7.6,2.6,7.3,2.5
	C7.3,2.5,7.3,2.4,7.2,2.4L7.2,2.4z M5.4,3.5C5.4,3.5,5.4,3.5,5.4,3.5C5.4,3.5,5.4,3.5,5.4,3.5c0,0.1-0.1,0.1-0.1,0.2
	c0,0.1,0,0.1,0,0.2c0,0,0,0.1,0,0.1c0,0.1,0.1,0.3,0.2,0.4c0,0,0.1,0.1,0.1,0.1c0,0,0.1,0,0.1,0.1c0.1,0,0.1,0.1,0.2,0.1
	c0,0,0.1,0.1,0.1,0.2c0,1.4,0,2.7,0,4.1c0,0,0,0,0,0.1c0,0,0,0.1,0,0.1c0,0,0,0.1,0.1,0.1c0,0,0,0,0.1,0c0,0,0,0,0.1,0
	c0,0,0-0.1,0-0.1c0,0,0-0.1,0-0.1c0-0.1,0-0.1,0-0.2c0-0.1,0-0.2,0-0.3c0-0.1,0-0.1,0-0.2c0-0.1,0-0.1,0-0.2c0-0.1,0-0.2,0-0.3
	c0-0.1,0-0.1,0-0.2c0-0.1,0-0.1,0-0.2c0-0.1,0-0.2,0-0.3c0-0.1,0-0.1,0-0.2c0,0,0,0.1,0,0.1c0,0.1,0,0.1,0,0.2c0,0.1,0,0.1,0,0.2
	c0,0.1,0,0.1,0,0.2c0,0.1,0,0.2,0,0.2c0,0.2,0.1,0.3,0.1,0.5c0,0.1,0,0.2,0.1,0.3c0,0.1,0.1,0.3,0.2,0.4c0,0,0.1,0.1,0.1,0.1
	c0,0,0,0,0,0c0,0,0,0,0,0c0,0,0,0,0-0.1C6.9,8.7,6.9,8.5,7,8.4c0,0,0,0,0-0.1c0,0,0.1,0,0.1-0.1c0.1,0,0.1,0,0.2,0
	c0.1,0,0.2,0,0.4,0c0.1,0,0.1,0,0.2,0c0.1,0,0.1,0,0.2,0c0.2,0,0.3-0.1,0.5-0.1c0.1,0,0.2-0.1,0.3-0.1C9,7.9,9.2,7.7,9.4,7.5
	c0,0,0-0.1,0.1-0.1c0,0.1,0,0.1-0.1,0.2c0,0.1-0.1,0.1-0.1,0.2C9.2,7.9,9.1,8.1,9,8.3C8.9,8.4,8.8,8.4,8.7,8.5
	C8.6,8.6,8.5,8.7,8.3,8.8C8.2,8.9,8,8.9,7.8,8.9c-0.1,0-0.1,0-0.2-0.1c-0.1,0-0.1,0-0.1-0.1c-0.1,0-0.1-0.1-0.2-0.1
	c0,0.1,0.1,0.1,0.2,0.2C7.6,8.9,7.6,8.9,7.7,9C7.8,9,7.9,9.1,8,9.1c0,0,0.1,0,0.1,0c0,0,0,0-0.1,0.1C7.8,9.3,7.6,9.4,7.4,9.4
	C7,9.6,6.6,9.7,6.2,9.7c-0.1,0-0.2,0-0.3,0c-0.1,0-0.2,0-0.3,0c-0.2,0-0.4-0.1-0.6-0.1c-0.2,0-0.4-0.1-0.6-0.2
	C4.3,9.3,4.2,9.3,4,9.2c0,0-0.1,0-0.1-0.1C4.1,9.1,4.2,9,4.3,9c0.1-0.1,0.2-0.1,0.3-0.2c0,0,0.1-0.1,0.1-0.1c-0.1,0-0.1,0.1-0.2,0.1
	c-0.1,0-0.2,0.1-0.3,0.1c-0.1,0-0.2,0-0.3,0c-0.1,0-0.3-0.1-0.4-0.2C3.4,8.6,3.4,8.6,3.3,8.5C3.1,8.3,3,8.1,2.8,7.9
	C2.7,7.8,2.7,7.7,2.6,7.5c0,0,0-0.1-0.1-0.1c0.1,0.1,0.1,0.1,0.2,0.2C2.9,7.8,3.1,7.9,3.2,8c0.1,0.1,0.3,0.2,0.5,0.2
	c0.1,0,0.1,0,0.2,0c0.1,0,0.1,0,0.2,0c0.1,0,0.2,0,0.3,0c0.1,0,0.1,0,0.2,0c0,0,0.1,0,0.1,0c0.1,0,0.1,0,0.2,0C4.9,8.3,5,8.3,5,8.4
	c0,0.1,0.1,0.1,0.1,0.2c0,0,0,0.1,0.1,0.1c0,0,0,0.1,0.1,0.1c0,0,0,0,0,0c0,0,0,0,0-0.1c0-0.1,0.1-0.2,0.1-0.2
	c0-0.1,0.1-0.2,0.1-0.4c0-0.2,0.1-0.3,0.1-0.5c0-0.1,0-0.1,0-0.2c0-0.2,0-0.4,0-0.6c0,0,0-0.1,0-0.1c0-0.1,0-0.2,0-0.2
	c0,0,0-0.1,0-0.1c0-0.1,0-0.2,0-0.3c0-0.1,0-0.2,0-0.4c0-0.1,0-0.2-0.1-0.3c0-0.1-0.1-0.3-0.2-0.4C5.4,5,5.3,4.9,5.2,4.8
	C5.2,4.7,5.1,4.7,5,4.6c0,0-0.1,0-0.1,0c0-0.1,0-0.1,0-0.2C5,4.3,5,4.2,5,4.1c0-0.1,0.1-0.1,0.1-0.2C5.2,3.7,5.3,3.6,5.4,3.5
	L5.4,3.5z M5.9,3.5C6,3.5,6,3.5,5.9,3.5C6,3.6,6,3.6,5.9,3.5l0,0.8c0,0,0,0.1,0,0.1c0,0,0,0,0,0c0-0.1,0-0.1,0-0.2c0,0,0-0.1,0-0.1
	c0,0-0.1,0-0.1,0c-0.1,0-0.2,0-0.3,0c0,0-0.1,0-0.1,0c0,0,0,0,0,0c0,0,0,0,0.1,0c0.1,0,0.1,0,0.2-0.1c0,0,0.1,0,0.1,0c0,0,0,0,0,0
	c0,0,0,0-0.1,0c-0.1,0-0.1,0-0.2-0.1c0,0-0.1,0-0.1,0c0,0,0,0,0,0c0.1,0,0.2,0,0.3,0c0.1,0,0.1,0,0.2,0c0,0,0,0,0,0
	C5.9,3.7,5.9,3.6,5.9,3.5L5.9,3.5z M6.1,3.5C6.1,3.5,6.1,3.5,6.1,3.5c0,0.1,0.1,0.1,0.1,0.2c0,0,0,0.1,0,0.1c0,0,0.1,0,0.1,0
	c0.1,0,0.2,0,0.3,0c0,0,0,0,0,0c0,0,0,0,0,0c0,0-0.1,0-0.1,0c-0.1,0-0.1,0-0.2,0.1c0,0,0,0,0,0c0,0,0,0,0,0c0,0,0,0,0.1,0
	c0.1,0,0.2,0.1,0.3,0.1c0,0,0,0,0,0c0,0,0,0,0,0c0,0-0.1,0-0.1,0c-0.1,0-0.2,0-0.3,0c0,0-0.1,0-0.1,0c0,0,0,0.1,0,0.1
	c0,0.1,0,0.1,0,0.2c0,0,0,0,0,0c0,0,0-0.1,0-0.1L6.1,3.5C6.1,3.6,6.1,3.6,6.1,3.5L6.1,3.5z M2.6,4.4c0,0,0-0.1,0.1-0.1
	c0,0.1-0.1,0.3-0.1,0.4c0,0.1,0,0.3,0,0.4c0,0.4,0.1,0.7,0.3,1.1C2.9,6.3,3,6.4,3.1,6.5c0.1,0.1,0.2,0.3,0.4,0.4
	C3.5,6.9,3.6,7,3.7,7c0.1,0,0.1,0.1,0.2,0.1c0.1,0,0.2,0.1,0.3,0.1c0.1,0,0.1,0,0.2,0c0.1,0,0.2,0.1,0.2,0.2
	c0.1,0.1,0.1,0.2,0.2,0.3c0,0.1,0,0.1,0,0.2c0,0,0,0,0,0C4.8,8,4.6,8.1,4.5,8.1c-0.1,0-0.2,0-0.2,0c-0.2,0-0.4,0-0.6-0.1
	C3.7,8,3.6,8,3.5,7.9C3.4,7.9,3.2,7.8,3.1,7.7C3.1,7.6,3,7.6,3,7.5C2.8,7.3,2.7,7.1,2.6,6.9c0-0.1-0.1-0.2-0.1-0.3
	c0-0.1,0-0.1-0.1-0.2c0-0.1,0-0.1,0-0.2c0,0,0-0.1,0-0.1c0-0.1,0-0.2,0-0.3c0-0.1,0-0.2,0-0.3c0-0.1,0-0.1,0-0.2
	c0-0.1,0-0.2,0.1-0.3C2.5,4.8,2.5,4.6,2.6,4.4L2.6,4.4z M9.3,4.2C9.3,4.3,9.4,4.3,9.3,4.2c0.1,0.2,0.1,0.3,0.2,0.3
	c0.1,0.3,0.2,0.7,0.2,1.1c0,0,0,0.1,0,0.1c0,0.2,0,0.4-0.1,0.5c0,0.1,0,0.1,0,0.2C9.5,6.7,9.4,7,9.3,7.2C9.1,7.5,8.9,7.7,8.7,7.8
	C8.6,7.9,8.5,7.9,8.4,8C8.3,8,8.1,8.1,8,8.1c-0.1,0-0.2,0-0.4,0c-0.1,0-0.3,0-0.4-0.1c0,0-0.1,0-0.1,0c0,0,0-0.1,0-0.1
	c0-0.1,0.1-0.2,0.1-0.3c0-0.1,0.1-0.2,0.2-0.2c0,0,0.1-0.1,0.1-0.1c0.1,0,0.1,0,0.2-0.1c0.1,0,0.3-0.1,0.4-0.1
	C8.4,7,8.5,6.9,8.7,6.7c0,0,0.1-0.1,0.1-0.1C8.8,6.6,8.9,6.5,9,6.4C9.1,6.3,9.2,6,9.3,5.8c0-0.1,0.1-0.2,0.1-0.3c0-0.1,0-0.1,0-0.2
	c0-0.1,0-0.2,0-0.3c0-0.1,0-0.2,0-0.4C9.4,4.5,9.4,4.4,9.3,4.2L9.3,4.2z"/>
</svg>
